<?xml version="1.0" encoding="utf-8"?>
<!-- Generator: Adobe Illustrator 19.1.0, SVG Export Plug-In . SVG Version: 6.00 Build 0)  -->
<svg version="1.1" id="Layer_1" xmlns="http://www.w3.org/2000/svg" xmlns:xlink="http://www.w3.org/1999/xlink" x="0px" y="0px"
	 viewBox="0 0 250 250" style="enable-background:new 0 0 250 250;" xml:space="preserve">
<style type="text/css">
	.st0{fill:url(#SVGID_1_);}
	.st1{fill:#A7A9AC;}
	.st2{clip-path:url(#SVGID_3_);}
	.st3{fill:url(#SVGID_4_);}
	.st4{fill:#DC4744;}
	.st5{fill:#F37572;}
	.st6{fill:#F9B9BA;}
</style>
<g>
	<linearGradient id="SVGID_1_" gradientUnits="userSpaceOnUse" x1="126.1968" y1="172.6691" x2="122.905" y2="21.8794">
		<stop  offset="0" style="stop-color:#FFFFFF"/>
		<stop  offset="1" style="stop-color:#DC4744"/>
	</linearGradient>
	<path class="st0" d="M125.2,231.3C67,231.3,19.6,184,19.6,125.8S67,20.2,125.2,20.2c58.2,0,105.6,47.4,105.6,105.6
		S183.4,231.3,125.2,231.3z"/>
	<path class="st1" d="M125.2,22.7c56.9,0,103.1,46.1,103.1,103.1c0,56.9-46.1,103.1-103.1,103.1S22.1,182.7,22.1,125.8
		C22.1,68.8,68.3,22.7,125.2,22.7 M125.2,17.7c-28.9,0-56,11.2-76.4,31.6c-20.4,20.4-31.6,47.5-31.6,76.4c0,28.9,11.2,56,31.6,76.4
		c20.4,20.4,47.5,31.6,76.4,31.6s56-11.2,76.4-31.6c20.4-20.4,31.6-47.5,31.6-76.4c0-28.9-11.2-56-31.6-76.4
		C181.2,28.9,154,17.7,125.2,17.7L125.2,17.7z"/>
</g>
<g>
	<defs>
		<circle id="SVGID_2_" cx="125.2" cy="125.8" r="103.1"/>
	</defs>
	<clipPath id="SVGID_3_">
		<use xlink:href="#SVGID_2_"  style="overflow:visible;"/>
	</clipPath>
	<g class="st2">
		
			<radialGradient id="SVGID_4_" cx="286.8403" cy="3269.4949" r="50.8339" gradientTransform="matrix(1.7349 0 0 0.1882 -372.4665 -412.2137)" gradientUnits="userSpaceOnUse">
			<stop  offset="0" style="stop-color:#CDCCCC"/>
			<stop  offset="1" style="stop-color:#FFFFFF"/>
		</radialGradient>
		<path class="st3" d="M213.3,203.1c0,5.3-39.4,9.6-88.1,9.6c-48.7,0-88.1-4.3-88.1-9.6c0-5.3,39.4-9.6,88.1-9.6
			C173.8,193.5,213.3,197.8,213.3,203.1z"/>
		<path class="st4" d="M124,203.1c-2,0-4-0.5-5.5-1.4c-3-1.9-74.4-45.6-74.4-90.2c0-17,12.9-48.9,44-48.9
			c22.1,0,31.9,10.1,35.9,16.8c4-6.7,13.7-16.8,35.9-16.8c31.1,0,44,31.8,44,48.9c0,44.6-71.4,88.4-74.4,90.2
			C127.9,202.6,126,203.1,124,203.1L124,203.1z"/>
		<path class="st5" d="M159.8,60.7C130,60.7,125,80.4,125,80.4c-0.6,2.2-1.5,2.2-2.1,0c0,0-5-19.7-34.9-19.7
			c-29.9,0-40.3,31.8-40.3,45.2c0,43,72.7,87,72.7,87c1.9,1.2,5.2,1.2,7.1,0c0,0,72.7-44,72.7-87C200.2,92.5,189.7,60.7,159.8,60.7z
			"/>
		<g>
			<path class="st6" d="M171.9,67.9c-12.9-4.6-24.7-0.7-31.6,3.9c-6.9,5.2-7.4,10.9-7.3,10.7c-0.1,0.1,2.3-4.6,9-7.6
				c6.3-2.7,17.7-4,27.2-0.5c19.3,9.3,22.7,32.5,22.7,31.5c-0.1,0.1,1.1-4.8-0.7-12.7C189.4,85.9,185,73.5,171.9,67.9z"/>
		</g>
		<g>
			<path class="st6" d="M76,67.9c-12.8,5.5-17.4,17.7-19.2,25.2c-1.8,7.9-0.7,12.9-0.8,12.9c0,1.1,3.2-21.8,22.6-31.5
				c9.4-3.6,20.6-2.1,27,0.4c6.7,3,9.2,7.7,9.1,7.6c0,0.2-0.5-5.3-7.2-10.6C100.9,67.3,89.1,63.2,76,67.9z"/>
		</g>
	</g>
</g>
</svg>
