<?xml version="1.0" encoding="utf-8"?>
<!-- Generator: Adobe Illustrator 19.1.0, SVG Export Plug-In . SVG Version: 6.00 Build 0)  -->
<svg version="1.1" xmlns="http://www.w3.org/2000/svg" xmlns:xlink="http://www.w3.org/1999/xlink" x="0px" y="0px"
	 viewBox="0 0 671.9 288.9" style="enable-background:new 0 0 671.9 288.9;" xml:space="preserve">
<style type="text/css">
	.st0{fill:#939598;}
	.st1{fill:#FFFFFF;}
	.st2{fill:none;stroke:#DC4744;stroke-width:8.2848;stroke-linecap:round;stroke-miterlimit:10;}
	.st3{fill:#F27572;}
</style>
<g id="Layer_1">
	<g>
		<path class="st0" d="M202.3,157.4l-1.8-0.3c-0.2,1.5-0.5,2.9-0.9,4.3l3.7,0.6C202.8,160.5,202.5,159,202.3,157.4z"/>
		<path class="st0" d="M188.6,143c-1.9-1.5-4.4-2.4-7.4-2.4c-5,0-8.6,2.9-10.5,6.8L188.6,143z"/>
		<path class="st0" d="M227.4,165.9c1.2-0.8,2.2-1.9,3.2-3.2l-20.8-3.9c0.4,1.7,1.2,3.2,2.2,4.6L227.4,165.9z"/>
		<path class="st0" d="M241.1,164.6l-3-0.6c-0.6,1.2-1.4,2.2-2.2,3.2l7.8,1.3C242.7,167.4,241.9,166.1,241.1,164.6z"/>
		<path class="st0" d="M170.8,161.1c1.9,3.9,5.4,6.7,10.4,6.7c0,0,0.1,0,0.1,0L170.8,161.1z"/>
		<path class="st0" d="M193.4,155.7l-23.9-4.5c-0.2,0.9-0.3,1.9-0.3,2.9c0,0.8,0.1,1.5,0.2,2.3l23,3.8
			C192.9,158.8,193.2,157.3,193.4,155.7z"/>
		<path class="st0" d="M182.8,174.3l58.7,35.4l1.6-2.6L189.4,173C187.5,173.8,185.3,174.3,182.8,174.3z"/>
		<polygon class="st0" points="162.4,174.7 162.4,165.9 157.7,159.1 162.4,161.9 162.4,155.8 161.2,155 162.4,155.2 162.4,149.9 
			161.3,149.7 162.4,149.4 162.4,144 160.9,144.3 162.4,143.3 162.4,136.9 157.2,140.5 207.8,56.7 205.2,55.1 153.1,137 168.8,41.2 
			165.8,40.7 147.7,136.8 124.3,41.8 121.3,42.5 142.4,137.3 85.7,58.5 83.3,60.2 138.5,141 54.7,90.4 53.1,93 135.1,145.1 
			39.2,129.4 38.7,132.4 134.9,150.4 39.9,173.9 40.6,176.9 135.4,155.8 56.5,212.4 58.3,214.9 139,159.7 88.5,243.4 91,245 
			143.1,163.1 127.5,258.9 130.5,259.5 148.5,163.3 172,258.3 174.9,257.6 153.8,162.8 		"/>
		<polygon class="st0" points="169.6,184.8 210.5,241.7 213,239.9 169.6,176.5 		"/>
		<polygon class="st0" points="169.6,135.2 169.6,138.1 239.7,87.7 238,85.2 164.9,135.2 		"/>
		<path class="st0" d="M257.5,167.8L257.5,167.8l-4.1-0.9C254.7,167.5,256,167.8,257.5,167.8z"/>
		<path class="st0" d="M196.6,141l12.1-3c3-2.5,6.9-3.9,11.9-3.9c1.1,0,2.1,0.1,3.1,0.2l32.7-8.1l-0.7-3l-62.8,14
			C194.3,138.3,195.5,139.5,196.6,141z"/>
	</g>
	<g>
		<path class="st1" d="M171.6,139.5h0.2c3-4.5,7.5-7.4,13.2-7.4c10.9,0,17.8,9.5,17.8,19.8c0,10.8-6.5,20.4-18.1,20.4
			c-5.3,0-9.9-2.9-12.8-7.2h-0.2v27.5h-7.3v-59.5h7.3V139.5z M195.5,152.1c0-7.4-4.4-13.6-12.3-13.6c-7.5,0-12,6.5-12,13.6
			c0,7.1,4.3,13.7,12,13.7C191.1,165.8,195.5,159.5,195.5,152.1z"/>
		<path class="st1" d="M211.4,153.3c0.1,6.5,4.4,12.5,11.4,12.5c5.6,0,8.6-2.8,11.3-7.4l6.1,3.5c-3.6,6.5-10.2,10.3-17.5,10.3
			c-11.6,0-18.6-8.7-18.6-19.9c0-11.6,6.2-20.4,18.4-20.4c12,0,17.7,8.9,17.7,20.1v1.1H211.4z M232.9,147.8
			c-0.9-5.7-4.6-9.5-10.4-9.5c-5.7,0-9.9,4-10.7,9.5H232.9z"/>
		<path class="st1" d="M271.8,165.1h-0.2c-2.9,4.3-7.5,7.2-12.8,7.2c-11.6,0-18.1-9.6-18.1-20.4c0-10.3,6.9-19.8,17.8-19.8
			c5.7,0,10.2,2.9,13.2,7.4h0.2v-38.6h7.3V171h-7.3V165.1z M272.2,152.1c0-7.4-4.4-13.6-12.3-13.6c-7.5,0-12,6.5-12,13.6
			c0,7.1,4.3,13.7,12,13.7C267.8,165.8,272.2,159.5,272.2,152.1z"/>
		<path class="st1" d="M321.1,171h-7.3v-5.9h-0.2c-2.9,4.3-7.4,7.2-12.8,7.2c-11.6,0-18.1-9.6-18.1-20.4c0-10.3,6.9-19.8,17.9-19.8
			c5.6,0,10.1,2.9,13.1,7.4h0.2v-6.3h7.3V171z M314.3,152.1c0-7.4-4.4-13.6-12.3-13.6c-7.5,0-12,6.5-12,13.6c0,7.1,4.3,13.7,12,13.7
			C309.9,165.8,314.3,159.5,314.3,152.1z"/>
		<path class="st1" d="M335.4,171h-7.3v-70.1h7.3V171z"/>
		<path class="st1" d="M370.1,139.5h0.2c3-4.5,7.5-7.4,13.2-7.4c10.9,0,17.8,9.5,17.8,19.8c0,10.8-6.5,20.4-18.1,20.4
			c-5.3,0-9.9-2.9-12.8-7.2h-0.2v27.5h-7.3v-59.5h7.3V139.5z M393.9,152.1c0-7.4-4.4-13.6-12.3-13.6c-7.5,0-12,6.5-12,13.6
			c0,7.1,4.3,13.7,12,13.7C389.6,165.8,393.9,159.5,393.9,152.1z"/>
		<path class="st1" d="M412.4,133.2v20.9c0,6.1,1.5,11.4,8.7,11.4s8.7-5.3,8.7-11.4v-20.9h7.3v21.7c0,10.3-4.8,17.4-16,17.4
			s-16-7-16-17.4v-21.7H412.4z"/>
		<path class="st1" d="M459.2,141.8c-0.9-1.9-2.7-3.3-4.8-3.3c-2,0-4,1.6-4,3.7c0,3.3,4.4,4.8,8.8,6.8c4.4,2,8.7,4.8,8.7,10.7
			c0,7.2-6,12.5-13,12.5c-5.5,0-11.1-3.2-13.1-8.5l6.2-2.8c1.5,2.8,3.4,4.8,6.9,4.8c3.1,0,5.7-2.1,5.7-5.3c0-2-1-3-2.7-4.1l-7.1-3.8
			c-4.2-2.3-7.3-4.4-7.3-9.5c0-6.1,5-11,11.1-11c4.6,0,8.3,2.5,10.3,6.6L459.2,141.8z"/>
		<path class="st1" d="M479.5,100.9v37.4h0.2c2.3-4,6.8-6.2,11.4-6.2c10.7,0,13.4,7.2,13.4,16.4V171h-7.3v-21.6
			c0-6.5-0.9-10.8-8.3-10.8c-9.4,0-9.4,8.2-9.4,15.1V171h-7.3v-70.1H479.5z"/>
		<path class="st1" d="M516,153.3c0.1,6.5,4.4,12.5,11.4,12.5c5.6,0,8.6-2.8,11.3-7.4l6.1,3.5c-3.6,6.5-10.2,10.3-17.5,10.3
			c-11.6,0-18.6-8.7-18.6-19.9c0-11.6,6.2-20.4,18.4-20.4c12,0,17.7,8.9,17.7,20.1v1.1H516z M537.5,147.8c-0.9-5.7-4.6-9.5-10.4-9.5
			c-5.7,0-9.9,4-10.7,9.5H537.5z"/>
		<path class="st1" d="M556,139.3h0.2c1.8-4.4,5.5-7.3,10.3-7.3c2.1,0,4.2,0.7,6,1.9l-3.3,6.6c-1.3-1.1-2.7-1.5-4.4-1.5
			c-7.8,0-8.8,7.3-8.8,13.4V171h-7.3v-37.8h7.3V139.3z"/>
		<path class="st1" d="M588.9,141.8c-0.9-1.9-2.7-3.3-4.8-3.3c-2,0-4,1.6-4,3.7c0,3.3,4.4,4.8,8.8,6.8c4.4,2,8.7,4.8,8.7,10.7
			c0,7.2-6,12.5-13,12.5c-5.5,0-11.1-3.2-13.1-8.5l6.2-2.8c1.5,2.8,3.4,4.8,6.9,4.8c3.1,0,5.7-2.1,5.7-5.3c0-2-1-3-2.7-4.1l-7.1-3.8
			c-4.2-2.3-7.3-4.4-7.3-9.5c0-6.1,5-11,11.1-11c4.6,0,8.3,2.5,10.3,6.6L588.9,141.8z"/>
	</g>
	<path class="st2" d="M244.5,60.1c-23.7-20.8-54.7-33.4-88.8-33.4C85.2,26.7,27.3,81,21.6,150.1"/>
	<g>
		<path class="st3" d="M391.6,182.5v8.8h0.1c0.5-0.9,1.2-1.6,2.2-2.1s2.1-0.6,3.3-0.6c1.3,0,2.5,0.2,3.5,0.7c1,0.5,1.8,1.1,2.5,2
			c0.7,0.8,1.1,1.8,1.5,2.9c0.3,1.1,0.5,2.2,0.5,3.4s-0.2,2.4-0.5,3.4c-0.3,1.1-0.8,2-1.5,2.8c-0.7,0.8-1.5,1.4-2.5,1.9
			s-2.1,0.7-3.4,0.7c-0.4,0-0.9,0-1.4-0.1c-0.5-0.1-1-0.2-1.5-0.4c-0.5-0.2-1-0.5-1.4-0.8c-0.5-0.3-0.8-0.8-1.1-1.3h-0.1v2.3h-2.8
			v-23.7H391.6z M401.7,195.2c-0.2-0.8-0.5-1.4-1-2s-1-1.1-1.7-1.4s-1.5-0.5-2.4-0.5c-1,0-1.8,0.2-2.4,0.6c-0.7,0.4-1.2,0.9-1.6,1.5
			c-0.4,0.6-0.7,1.3-0.9,2.1c-0.2,0.8-0.3,1.6-0.3,2.4c0,0.8,0.1,1.7,0.3,2.4c0.2,0.8,0.5,1.5,0.9,2.1s1,1.1,1.7,1.4
			c0.7,0.4,1.5,0.5,2.5,0.5c1,0,1.8-0.2,2.4-0.6c0.7-0.4,1.2-0.9,1.6-1.5c0.4-0.6,0.7-1.3,0.9-2.1c0.2-0.8,0.3-1.6,0.3-2.5
			C402.1,196.7,402,195.9,401.7,195.2z"/>
		<path class="st3" d="M415.1,186v-3.4h2.8v3.4H415.1z M418,189.1v17.1h-2.8v-17.1H418z"/>
		<path class="st3" d="M431.9,182.5v14l7.8-7.5h3.8l-6.8,6.2l7.3,10.9h-3.6l-5.9-8.9l-2.7,2.5v6.5h-2.8v-23.7H431.9z"/>
		<path class="st3" d="M464.9,205.1c-1.3,1-2.9,1.5-4.8,1.5c-1.4,0-2.6-0.2-3.6-0.7c-1-0.4-1.9-1.1-2.5-1.9
			c-0.7-0.8-1.2-1.7-1.5-2.8c-0.3-1.1-0.5-2.3-0.6-3.6c0-1.3,0.2-2.5,0.6-3.6c0.4-1.1,1-2,1.7-2.8c0.7-0.8,1.6-1.4,2.6-1.9
			c1-0.4,2.1-0.7,3.2-0.7c1.5,0,2.8,0.3,3.8,0.9c1,0.6,1.8,1.4,2.4,2.4c0.6,1,1,2,1.3,3.2s0.3,2.2,0.3,3.3h-12.8
			c0,0.8,0.1,1.5,0.3,2.1c0.2,0.7,0.5,1.3,1,1.8c0.4,0.5,1,0.9,1.7,1.2s1.5,0.5,2.4,0.5c1.2,0,2.2-0.3,2.9-0.8
			c0.8-0.6,1.3-1.4,1.5-2.5h2.8C467,202.7,466.2,204.1,464.9,205.1z M464.2,194.1c-0.3-0.6-0.6-1.1-1-1.5s-0.9-0.8-1.5-1
			s-1.2-0.4-1.9-0.4c-0.7,0-1.4,0.1-2,0.4c-0.6,0.3-1.1,0.6-1.5,1c-0.4,0.4-0.8,1-1,1.5c-0.2,0.6-0.4,1.2-0.4,1.9h9.8
			C464.6,195.3,464.5,194.7,464.2,194.1z"/>
		<path class="st3" d="M500.4,189.1v2.5H497v10.6c0,0.3,0,0.6,0.1,0.8c0.1,0.2,0.2,0.4,0.3,0.5c0.2,0.1,0.4,0.2,0.6,0.2s0.6,0,1.1,0
			h1.3v2.5h-2.2c-0.7,0-1.4,0-1.9-0.1s-0.9-0.3-1.3-0.5c-0.3-0.3-0.6-0.6-0.7-1.1c-0.2-0.5-0.2-1.1-0.2-1.9v-10.9h-2.9v-2.5h2.9
			v-5.1h2.8v5.1H500.4z"/>
		<path class="st3" d="M509.7,194.1c0.4-1.1,0.9-2,1.6-2.9c0.7-0.8,1.6-1.4,2.6-1.9s2.2-0.7,3.6-0.7c1.4,0,2.6,0.2,3.6,0.7
			s1.9,1.1,2.6,1.9c0.7,0.8,1.2,1.8,1.6,2.9c0.4,1.1,0.5,2.3,0.5,3.5c0,1.3-0.2,2.4-0.5,3.5c-0.4,1.1-0.9,2-1.6,2.8
			c-0.7,0.8-1.6,1.4-2.6,1.9c-1,0.5-2.2,0.7-3.6,0.7c-1.3,0-2.5-0.2-3.6-0.7c-1-0.5-1.9-1.1-2.6-1.9c-0.7-0.8-1.2-1.8-1.6-2.8
			c-0.4-1.1-0.5-2.3-0.5-3.5C509.2,196.4,509.4,195.2,509.7,194.1z M512.6,200.4c0.3,0.8,0.7,1.5,1.1,2c0.5,0.5,1.1,1,1.7,1.2
			s1.3,0.4,2.1,0.4c0.7,0,1.4-0.1,2.1-0.4s1.2-0.7,1.7-1.2c0.5-0.5,0.9-1.2,1.1-2c0.3-0.8,0.4-1.7,0.4-2.8c0-1-0.1-2-0.4-2.8
			c-0.3-0.8-0.7-1.5-1.1-2c-0.5-0.6-1.1-1-1.7-1.3s-1.3-0.4-2.1-0.4c-0.7,0-1.4,0.1-2.1,0.4s-1.2,0.7-1.7,1.3
			c-0.5,0.6-0.9,1.2-1.1,2c-0.3,0.8-0.4,1.7-0.4,2.8C512.2,198.7,512.3,199.6,512.6,200.4z"/>
		<path class="st3" d="M565.6,206.2l-3.5-13.6h-0.1l-3.4,13.6h-3l-5.5-17.1h3.1l3.9,14h0.1l3.4-14h3.1l3.6,14h0.1l3.8-14h2.9
			l-5.5,17.1H565.6z"/>
		<path class="st3" d="M583,194.1c0.4-1.1,0.9-2,1.6-2.9c0.7-0.8,1.6-1.4,2.6-1.9s2.2-0.7,3.6-0.7c1.4,0,2.6,0.2,3.6,0.7
			s1.9,1.1,2.6,1.9c0.7,0.8,1.2,1.8,1.6,2.9c0.4,1.1,0.5,2.3,0.5,3.5c0,1.3-0.2,2.4-0.5,3.5c-0.4,1.1-0.9,2-1.6,2.8
			c-0.7,0.8-1.6,1.4-2.6,1.9c-1,0.5-2.2,0.7-3.6,0.7c-1.3,0-2.5-0.2-3.6-0.7c-1-0.5-1.9-1.1-2.6-1.9c-0.7-0.8-1.2-1.8-1.6-2.8
			c-0.4-1.1-0.5-2.3-0.5-3.5C582.4,196.4,582.6,195.2,583,194.1z M585.8,200.4c0.3,0.8,0.7,1.5,1.1,2c0.5,0.5,1.1,1,1.7,1.2
			s1.3,0.4,2.1,0.4c0.7,0,1.4-0.1,2.1-0.4s1.2-0.7,1.7-1.2c0.5-0.5,0.9-1.2,1.1-2c0.3-0.8,0.4-1.7,0.4-2.8c0-1-0.1-2-0.4-2.8
			c-0.3-0.8-0.7-1.5-1.1-2c-0.5-0.6-1.1-1-1.7-1.3s-1.3-0.4-2.1-0.4c-0.7,0-1.4,0.1-2.1,0.4s-1.2,0.7-1.7,1.3
			c-0.5,0.6-0.9,1.2-1.1,2c-0.3,0.8-0.4,1.7-0.4,2.8C585.4,198.7,585.6,199.6,585.8,200.4z"/>
		<path class="st3" d="M611.6,189.1v3.6h0.1c0.7-1.4,1.5-2.4,2.5-3.1c1-0.7,2.3-1,3.8-0.9v3c-1.1,0-2.1,0.2-2.9,0.5
			c-0.8,0.3-1.4,0.8-1.9,1.4c-0.5,0.6-0.8,1.3-1.1,2.2c-0.2,0.9-0.3,1.8-0.3,2.9v7.6h-2.8v-17.1H611.6z"/>
		<path class="st3" d="M629.7,182.5v14l7.8-7.5h3.8l-6.8,6.2l7.3,10.9h-3.6l-5.9-8.9l-2.7,2.5v6.5h-2.8v-23.7H629.7z"/>
	</g>
</g>
<g id="Layer_2">
</g>
</svg>
