<?xml version="1.0" encoding="utf-8"?>
<!-- Generator: Adobe Illustrator 19.1.0, SVG Export Plug-In . SVG Version: 6.00 Build 0)  -->
<svg version="1.1" id="Layer_1" xmlns="http://www.w3.org/2000/svg" xmlns:xlink="http://www.w3.org/1999/xlink" x="0px" y="0px"
	 viewBox="0 0 250 250" style="enable-background:new 0 0 250 250;" xml:space="preserve">
<style type="text/css">
	.st0{fill:url(#SVGID_1_);}
	.st1{fill:#A7A9AC;}
	.st2{clip-path:url(#SVGID_3_);}
	.st3{fill:url(#SVGID_4_);}
	.st4{fill:url(#SVGID_5_);}
	.st5{fill:url(#SVGID_6_);}
	.st6{fill:url(#SVGID_7_);}
	.st7{fill:url(#SVGID_8_);}
	.st8{fill:url(#SVGID_9_);}
	.st9{fill:url(#SVGID_10_);}
	.st10{fill:url(#SVGID_11_);}
	.st11{fill:url(#SVGID_12_);}
	.st12{fill:url(#SVGID_13_);}
	.st13{fill:url(#SVGID_14_);}
	.st14{fill:#818181;}
	.st15{fill:#FFFFFF;}
</style>
<g>
	<linearGradient id="SVGID_1_" gradientUnits="userSpaceOnUse" x1="125.6121" y1="172.6691" x2="122.3203" y2="21.8794">
		<stop  offset="0" style="stop-color:#FFFFFF"/>
		<stop  offset="1" style="stop-color:#DC4744"/>
	</linearGradient>
	<path class="st0" d="M124.6,231.3C66.4,231.3,19,184,19,125.8S66.4,20.2,124.6,20.2c58.2,0,105.6,47.4,105.6,105.6
		S182.8,231.3,124.6,231.3z"/>
	<path class="st1" d="M124.6,22.7c56.9,0,103.1,46.1,103.1,103.1c0,56.9-46.1,103.1-103.1,103.1S21.5,182.7,21.5,125.8
		C21.5,68.8,67.7,22.7,124.6,22.7 M124.6,17.7c-28.9,0-56,11.2-76.4,31.6c-20.4,20.4-31.6,47.5-31.6,76.4c0,28.9,11.2,56,31.6,76.4
		c20.4,20.4,47.5,31.6,76.4,31.6s56-11.2,76.4-31.6c20.4-20.4,31.6-47.5,31.6-76.4c0-28.9-11.2-56-31.6-76.4
		C180.6,28.9,153.5,17.7,124.6,17.7L124.6,17.7z"/>
</g>
<g>
	<defs>
		<circle id="SVGID_2_" cx="124.6" cy="125.8" r="103.1"/>
	</defs>
	<clipPath id="SVGID_3_">
		<use xlink:href="#SVGID_2_"  style="overflow:visible;"/>
	</clipPath>
	<g class="st2">
		
			<radialGradient id="SVGID_4_" cx="162.2828" cy="29.5923" r="114.7218" gradientTransform="matrix(0.7794 0 0 7.640000e-02 -1.2292 201.6374)" gradientUnits="userSpaceOnUse">
			<stop  offset="0" style="stop-color:#CDCCCC"/>
			<stop  offset="1" style="stop-color:#FFFFFF"/>
		</radialGradient>
		<path class="st3" d="M214.7,203.9c0,4.8-40.1,8.8-89.5,8.8c-49.4,0-89.5-3.9-89.5-8.8c0-4.9,40.1-8.8,89.5-8.8
			C174.7,195.1,214.7,199,214.7,203.9z"/>
		<radialGradient id="SVGID_5_" cx="125.2605" cy="125.2955" r="69.9927" gradientUnits="userSpaceOnUse">
			<stop  offset="0.9636" style="stop-color:#231F20"/>
			<stop  offset="1" style="stop-color:#989898"/>
		</radialGradient>
		<path class="st4" d="M195.3,125.3c0,38.6-31.3,70-70,70c-38.6,0-70-31.3-70-70c0-38.7,31.3-70,70-70
			C163.9,55.3,195.3,86.7,195.3,125.3z"/>
		<g>
			<linearGradient id="SVGID_6_" gradientUnits="userSpaceOnUse" x1="125.2605" y1="203.7462" x2="125.2605" y2="46.8701">
				<stop  offset="0" style="stop-color:#989898"/>
				<stop  offset="1" style="stop-color:#D9D9D8"/>
			</linearGradient>
			<path class="st5" d="M203.7,125.3c0,43.3-35.1,78.4-78.4,78.4c-43.3,0-78.4-35.1-78.4-78.4c0-43.3,35.1-78.4,78.4-78.4
				C168.6,46.9,203.7,82,203.7,125.3z"/>
			<linearGradient id="SVGID_7_" gradientUnits="userSpaceOnUse" x1="125.2544" y1="203.1016" x2="125.2544" y2="47.3316">
				<stop  offset="0" style="stop-color:#A09F9F"/>
				<stop  offset="1" style="stop-color:#E0E0DF"/>
			</linearGradient>
			<path class="st6" d="M125.2,47.3c43,0,77.9,34.9,77.9,77.9c0,43-34.9,77.9-77.9,77.9c-43,0-77.9-34.9-77.9-77.9
				C47.4,82.2,82.2,47.3,125.2,47.3z"/>
			<linearGradient id="SVGID_8_" gradientUnits="userSpaceOnUse" x1="125.254" y1="202.4634" x2="125.254" y2="47.8118">
				<stop  offset="0" style="stop-color:#A7A6A6"/>
				<stop  offset="1" style="stop-color:#E6E6E5"/>
			</linearGradient>
			<path class="st7" d="M125.2,47.8c42.7,0,77.3,34.6,77.3,77.3c0,42.7-34.6,77.3-77.3,77.3c-42.7,0-77.3-34.6-77.3-77.3
				C47.9,82.4,82.5,47.8,125.2,47.8z"/>
			<linearGradient id="SVGID_9_" gradientUnits="userSpaceOnUse" x1="125.2576" y1="201.8001" x2="125.2576" y2="48.2797">
				<stop  offset="0" style="stop-color:#AEAEAE"/>
				<stop  offset="1" style="stop-color:#ECECEC"/>
			</linearGradient>
			<path class="st8" d="M125.2,48.3c42.4,0,76.8,34.4,76.8,76.8c0,42.4-34.4,76.8-76.8,76.8c-42.4,0-76.8-34.4-76.8-76.8
				C48.5,82.7,82.9,48.3,125.2,48.3z"/>
			<linearGradient id="SVGID_10_" gradientUnits="userSpaceOnUse" x1="125.2576" y1="201.1677" x2="125.2576" y2="48.747">
				<stop  offset="0" style="stop-color:#B4B4B4"/>
				<stop  offset="1" style="stop-color:#F3F3F3"/>
			</linearGradient>
			<path class="st9" d="M125.2,48.7c42.1,0,76.2,34.1,76.2,76.2c0,42.1-34.1,76.2-76.2,76.2c-42.1,0-76.2-34.1-76.2-76.2
				C49,82.9,83.2,48.7,125.2,48.7z"/>
			<linearGradient id="SVGID_11_" gradientUnits="userSpaceOnUse" x1="125.2543" y1="200.5296" x2="125.2543" y2="49.2085">
				<stop  offset="0" style="stop-color:#BBBBBB"/>
				<stop  offset="1" style="stop-color:#F9F9FA"/>
			</linearGradient>
			<path class="st10" d="M125.2,49.2c41.8,0,75.7,33.9,75.7,75.7c0,41.8-33.9,75.7-75.7,75.7c-41.8,0-75.6-33.9-75.6-75.7
				C49.6,83.1,83.5,49.2,125.2,49.2z"/>
			<linearGradient id="SVGID_12_" gradientUnits="userSpaceOnUse" x1="125.2543" y1="199.8908" x2="125.2543" y2="49.6699">
				<stop  offset="0" style="stop-color:#C1C0C0"/>
				<stop  offset="1" style="stop-color:#FFFFFF"/>
			</linearGradient>
			<path class="st11" d="M200.4,124.8c0,41.5-33.6,75.1-75.1,75.1c-41.5,0-75.1-33.6-75.1-75.1c0-41.5,33.6-75.1,75.1-75.1
				C166.7,49.7,200.4,83.3,200.4,124.8z"/>
		</g>
		<linearGradient id="SVGID_13_" gradientUnits="userSpaceOnUse" x1="125.2544" y1="187.9455" x2="125.2544" y2="62.6774">
			<stop  offset="0" style="stop-color:#FFFFFF"/>
			<stop  offset="1" style="stop-color:#C8C7C7"/>
		</linearGradient>
		<path class="st12" d="M125.2,187.9c-34.5,0-62.6-28.1-62.6-62.6c0-34.5,28.1-62.6,62.6-62.6c34.6,0,62.6,28.1,62.6,62.6
			C187.9,159.8,159.8,187.9,125.2,187.9L125.2,187.9z"/>
		<radialGradient id="SVGID_14_" cx="125.2573" cy="125.2988" r="58.3094" gradientUnits="userSpaceOnUse">
			<stop  offset="0.5152" style="stop-color:#FFFFFF"/>
			<stop  offset="0.6987" style="stop-color:#F8F8F7"/>
			<stop  offset="0.9002" style="stop-color:#EAEAEA"/>
			<stop  offset="0.903" style="stop-color:#EAEAEA"/>
			<stop  offset="1" style="stop-color:#9B9C9C"/>
		</radialGradient>
		<path class="st13" d="M183.6,125.3c0,32.2-26.1,58.3-58.3,58.3c-32.2,0-58.3-26.1-58.3-58.3c0-32.2,26.1-58.3,58.3-58.3
			C157.5,67,183.6,93.1,183.6,125.3z"/>
		<g>
			<path class="st14" d="M75.9,125.3c0-0.3,0-0.6,0-0.8h-5.8c0,0.3,0,0.6,0,0.8c0,0.3,0,0.5,0,0.8h5.8
				C75.9,125.8,75.9,125.6,75.9,125.3z"/>
			<path class="st14" d="M125.2,76c0.3,0,0.6,0,0.8,0v-5.8c-0.3,0-0.5,0-0.8,0c-0.3,0-0.5,0-0.8,0V76C124.7,76,125,76,125.2,76z"/>
			<path class="st14" d="M148.1,81.5l2.6-5.2c-0.5-0.2-1-0.5-1.4-0.7l-2.6,5.2C147.1,81,147.6,81.3,148.1,81.5z"/>
			<path class="st14" d="M169.8,104l5.2-2.6c-0.2-0.5-0.5-1-0.8-1.5l-5.2,2.6C169.3,103,169.5,103.5,169.8,104z"/>
			<path class="st14" d="M174.6,125.3c0,0.3,0,0.5,0,0.8h5.8c0-0.3,0-0.6,0-0.8c0-0.3,0-0.6,0-0.8h-5.8
				C174.6,124.8,174.6,125,174.6,125.3z"/>
			<path class="st14" d="M103.9,80.8l-2.6-5.2c-0.5,0.2-1,0.5-1.5,0.7l2.6,5.2C102.9,81.3,103.4,81,103.9,80.8z"/>
			<path class="st14" d="M80.8,146.6l-5.2,2.6c0.2,0.5,0.5,1,0.7,1.5l5.2-2.6C81.2,147.6,81,147.1,80.8,146.6z"/>
			<path class="st14" d="M81.5,102.5l-5.2-2.6c-0.3,0.5-0.5,1-0.7,1.5l5.2,2.6C81,103.5,81.2,103,81.5,102.5z"/>
			<path class="st14" d="M169,148.1l5.2,2.6c0.3-0.5,0.5-1,0.8-1.5l-5.2-2.6C169.5,147.1,169.3,147.6,169,148.1z"/>
			<path class="st14" d="M146.6,169.8l2.6,5.2c0.5-0.3,1-0.5,1.4-0.8l-2.6-5.2C147.6,169.3,147.1,169.6,146.6,169.8z"/>
			<path class="st14" d="M125.2,174.7c-0.3,0-0.5,0-0.8,0v5.8c0.3,0,0.5,0,0.8,0c0.3,0,0.6,0,0.8,0v-5.8
				C125.8,174.7,125.6,174.7,125.2,174.7z"/>
			<path class="st14" d="M102.5,169.1l-2.6,5.2c0.5,0.2,1,0.5,1.5,0.8l2.6-5.2C103.4,169.6,102.9,169.3,102.5,169.1z"/>
		</g>
		<polygon class="st14" points="98.2,107.4 135.4,127.3 132.6,132.6 95.4,112.7 		"/>
		<polygon class="st14" points="166.1,98.6 118.3,132.6 116.1,129.5 163.9,95.5 		"/>
		<g>
			<path class="st15" d="M125.2,48.6c-33.9-0.2-59.4,23.2-67.7,42.5c-9.2,19.7-6.9,33.8-7.5,33.6c0.5,0.2-1.2-13.6,8.2-32.7
				c8.5-18.8,33.4-41.4,66.9-41.3c32.9-0.2,58,22,66.7,40.9c9.6,19.2,7.9,33.4,8.4,33.2c-0.5,0.2,1.8-13.5-7.2-33.2
				C185,72.3,159.8,48.5,125.2,48.6z"/>
		</g>
	</g>
</g>
</svg>
