<?xml version="1.0" encoding="utf-8"?>
<!-- Generator: Adobe Illustrator 19.1.0, SVG Export Plug-In . SVG Version: 6.00 Build 0)  -->
<svg version="1.1" id="Layer_1" xmlns="http://www.w3.org/2000/svg" xmlns:xlink="http://www.w3.org/1999/xlink" x="0px" y="0px"
	 viewBox="0 0 250 250" style="enable-background:new 0 0 250 250;" xml:space="preserve">
<style type="text/css">
	.st0{fill:url(#SVGID_1_);}
	.st1{fill:#A7A9AC;}
	.st2{fill:url(#SVGID_2_);}
	.st3{fill:url(#SVGID_3_);}
	.st4{fill:url(#SVGID_4_);}
	.st5{fill:url(#SVGID_5_);}
	.st6{fill:url(#SVGID_6_);}
	.st7{clip-path:url(#SVGID_8_);fill:url(#SVGID_9_);}
	.st8{clip-path:url(#SVGID_8_);fill:url(#SVGID_10_);}
	.st9{clip-path:url(#SVGID_8_);fill:url(#SVGID_11_);}
	.st10{clip-path:url(#SVGID_8_);fill:url(#SVGID_12_);}
	.st11{clip-path:url(#SVGID_8_);fill:url(#SVGID_13_);}
	.st12{clip-path:url(#SVGID_8_);fill:url(#SVGID_14_);}
	.st13{clip-path:url(#SVGID_8_);fill:url(#SVGID_15_);}
	.st14{clip-path:url(#SVGID_8_);fill:url(#SVGID_16_);}
	.st15{clip-path:url(#SVGID_8_);fill:url(#SVGID_17_);stroke:#A7A9AC;stroke-width:5;stroke-miterlimit:10;}
	.st16{clip-path:url(#SVGID_8_);fill:url(#SVGID_18_);}
	.st17{clip-path:url(#SVGID_8_);fill:url(#SVGID_19_);}
	.st18{clip-path:url(#SVGID_8_);fill:url(#SVGID_20_);}
</style>
<g>
	<linearGradient id="SVGID_1_" gradientUnits="userSpaceOnUse" x1="125.0541" y1="171.9051" x2="121.7623" y2="21.1147">
		<stop  offset="0" style="stop-color:#FFFFFF"/>
		<stop  offset="1" style="stop-color:#DC4744"/>
	</linearGradient>
	<path class="st0" d="M124,230.6c-58.2,0-105.6-47.4-105.6-105.6S65.8,19.4,124,19.4S229.6,66.8,229.6,125S182.2,230.6,124,230.6z"
		/>
	<path class="st1" d="M124,21.9c56.9,0,103.1,46.1,103.1,103.1c0,56.9-46.1,103.1-103.1,103.1S21,181.9,21,125
		C21,68.1,67.1,21.9,124,21.9 M124,16.9c-28.9,0-56,11.2-76.4,31.6S16,96.1,16,125c0,28.9,11.2,56,31.6,76.4
		c20.4,20.4,47.5,31.6,76.4,31.6s56-11.2,76.4-31.6c20.4-20.4,31.6-47.5,31.6-76.4c0-28.9-11.2-56-31.6-76.4
		C180,28.2,152.9,16.9,124,16.9L124,16.9z"/>
</g>
<linearGradient id="SVGID_2_" gradientUnits="userSpaceOnUse" x1="124.0407" y1="164.1904" x2="124.0407" y2="80.7907">
	<stop  offset="0" style="stop-color:#B0B1B1"/>
	<stop  offset="1" style="stop-color:#D7D6D6"/>
</linearGradient>
<path class="st2" d="M165.7,122.5c0,23-18.7,41.7-41.7,41.7c-23,0-41.7-18.7-41.7-41.7c0-23,18.7-41.7,41.7-41.7
	C147.1,80.8,165.7,99.5,165.7,122.5z M124,104.1c-10.2,0-18.4,8.2-18.4,18.4c0,10.1,8.2,18.3,18.4,18.3c10.1,0,18.3-8.2,18.3-18.3
	C142.4,112.3,134.2,104.1,124,104.1z"/>
<linearGradient id="SVGID_3_" gradientUnits="userSpaceOnUse" x1="102.9779" y1="132.8685" x2="145.1156" y2="132.8685">
	<stop  offset="0" style="stop-color:#C4C4C4"/>
	<stop  offset="0.5" style="stop-color:#FFFFFF"/>
	<stop  offset="1" style="stop-color:#C4C4C4"/>
</linearGradient>
<path class="st3" d="M124.1,140.4c-13.4-1-17.2-10-18.7-13.1c-1.4-3.9-2-4.7-2.4-4.7c0,11.1,10,20.8,21.1,20.5
	c11.1,0.3,21.1-9.5,21.1-20.6c-0.4-0.1-1,0.8-2.3,4.6C141.2,130.3,137.5,139.4,124.1,140.4z"/>
<linearGradient id="SVGID_4_" gradientUnits="userSpaceOnUse" x1="78.0534" y1="98.9762" x2="170.007" y2="98.9762">
	<stop  offset="0" style="stop-color:#C4C4C4"/>
	<stop  offset="0.5" style="stop-color:#FFFFFF"/>
	<stop  offset="1" style="stop-color:#C4C4C4"/>
</linearGradient>
<path class="st4" d="M169.4,123.3L169.4,123.3c0.3,0,1.2-1.6,0.1-11.7c-1.5-8-9.4-33.9-45.4-36.9c-36.4,3.1-44.1,29.3-45.5,37.1
	c-1,10-0.2,11.5,0.1,11.5l0,0c-1-24.5,20.7-46.9,45.4-46.2C148.7,76.4,170.4,98.8,169.4,123.3z"/>
<linearGradient id="SVGID_5_" gradientUnits="userSpaceOnUse" x1="50.4634" y1="83.0908" x2="197.6221" y2="83.0908">
	<stop  offset="0" style="stop-color:#C4C4C4"/>
	<stop  offset="0.5" style="stop-color:#FFFFFF"/>
	<stop  offset="1" style="stop-color:#C4C4C4"/>
</linearGradient>
<path class="st5" d="M197.6,118c0-2.1,0-4.4,0-6.3l-6.4,0l-6.4,0.1l-3.2,0h-0.8h-0.2h0c-0.3-0.3-0.1-0.1-0.2-0.2l0-0.1l-0.1-0.4
	l-0.4-1.5c-1-4.2-2.4-8.2-4.3-12c-1-1.9-2-3.8-3.1-5.5l-0.9-1.3l0-0.1l0-0.1c0,0.1,0.1-0.8,0-0.4l0,0l0.1-0.1l0.3-0.3l0.6-0.6
	l2.3-2.3l4.5-4.6l2.3-2.3l1.1-1.2l0.6-0.6l0.3-0.3h0c0,0.3,0-0.7,0,0.6l0-0.1l-0.1-0.1l-0.1-0.1l-9.1-9l-4.6-4.5l-1.2-1.1l-0.3-0.3
	l-0.1-0.2c-0.8,0,1,0,0.8,0l0,0l0,0l-0.1,0.1l-0.6,0.6l-2.3,2.3l-9,9.1l-0.1,0.1c-1.9,0.2-0.6,0.1-1,0.1l-0.1,0l-0.2-0.1l-0.3-0.2
	l-0.7-0.4c-0.5-0.3-0.9-0.6-1.3-0.9c-1-0.5-1.8-1.1-2.8-1.6c-1.9-1-3.8-1.9-5.7-2.6c-2-0.8-4-1.5-6-2c-1-0.3-2-0.5-3.1-0.7l-0.8-0.2
	c0.1,0.1-1-1.2-0.5-0.7v0v-0.1v-0.2v-0.4v-1.6l0-12.8v-1.6v-0.2V49c-0.1-0.2,1.1,1.1,0.6,0.6h0h-0.4h-0.8l-3.2,0l-6.4,0l-6.4,0
	l-3.2,0l-0.8,0h-0.4h-0.1c-0.5,0.5,0.6-0.6,0.5-0.5v0.1v0.2l0,1.6l0,12.8l0,1.6v0.4v0.2V66v0c0.3-0.4-0.4,0.6-0.4,0.5l-0.8,0.2
	c-1,0.2-2.1,0.4-3.1,0.7c-2,0.5-4.1,1.2-6.1,1.9c-2,0.8-3.9,1.7-5.8,2.6c-1,0.5-1.9,1-2.8,1.6c-0.5,0.3-0.9,0.6-1.3,0.8l-0.7,0.5
	L92.3,75l-0.2,0.1l0,0c-0.2,0,0.4,0.1-0.5,0l-0.1-0.1l-9-9.1l-2.3-2.3l-0.5-0.6L79.6,63l0,0c-0.4,0,0.5,0,0.4,0l-0.2,0.2l-0.3,0.3
	l-1.1,1.1l-4.6,4.5l-9.1,9l-0.1,0.1l-0.1,0.1l0,0c0-0.6,0-0.1,0-0.3l0.3,0.3l0.6,0.6l1.1,1.1l2.3,2.3l4.5,4.5l2.3,2.3
	c0.3,0.5,0.9,0.5,1,1.4l-0.9,1.4c-1.2,1.8-2.2,3.7-3.1,5.6c-1.9,3.8-3.3,7.9-4.3,12l-0.3,1.6l-0.1,0.4c-0.1,0.1,0.1,0.1-0.2,0.2
	h-0.2h-0.8l-3.2,0l-6.4,0l-6.4,0c-0.1,2,0,4.2,0,6.3c0-2.1-0.1-4.3,0-6.4l6.4,0h6.4l3.2,0h0.8h0.2c-0.1,0.2,0-0.1,0-0.1l0.1-0.4
	l0.3-1.6c1-4.2,2.4-8.3,4.2-12.1c1-1.9,2-3.8,3.1-5.6l0.9-1.4c0.1,0-0.6-0.6-0.9-0.9L73,87.2l-4.5-4.5l-2.3-2.3L65,79.2l-0.6-0.6
	l-0.3-0.3c0-0.2,0,0.3,0-0.4l0,0l0.1,0l0.2-0.1l9-9.1l4.5-4.5l1.1-1.2l0.3-0.3l0.1-0.1c-0.1,0,0.8,0,0.5,0l0,0l0.1,0.1l0.6,0.6
	l2.3,2.2l9.1,9l0.1,0.1c-0.9-0.1-0.2,0-0.4,0l0,0l0.2-0.1l0.3-0.2l0.7-0.4c0.5-0.3,0.9-0.6,1.4-0.9c0.9-0.5,1.9-1.1,2.8-1.6
	c1.9-1,3.9-1.9,5.9-2.7c2-0.8,4-1.5,6.1-2c1-0.3,2.1-0.5,3.1-0.7l0.8-0.2c0.1-0.1-0.6,0.8-0.3,0.4v0v-0.1v-0.2v-0.4l0-1.6l0-12.8
	v-1.6v-0.2V49c-0.1,0.1,1-1,0.5-0.5h0.1h0.4h0.8h3.2l6.4,0l6.4,0h3.2h0.8h0.4h0c-0.5-0.5,0.8,0.7,0.6,0.6v0.1v0.2v1.6l0.1,12.8v1.6
	v0.4v0.2V66v0c0.5,0.6-0.7-0.7-0.5-0.6l0.8,0.2c1.1,0.2,2.1,0.4,3.2,0.7c2.1,0.6,4.2,1.2,6.2,2c2,0.8,4,1.7,5.9,2.7
	c1,0.5,1.9,1.1,2.8,1.6c0.5,0.3,0.9,0.6,1.4,0.9l0.7,0.4l0.3,0.2l0.2,0.1h0c-0.4,0,0.9,0-0.9,0.1l0.1-0.1l9.1-9l2.3-2.2l0.6-0.6
	l0.1-0.1l0-0.1h0c-0.2,0,1.7,0,0.9,0l0.2,0.1l0.3,0.3l1.1,1.2l4.5,4.6l9,9.1l0.1,0.2l0.1,0.1l0,0c0,1.3,0,0.4,0,0.7l0,0l-0.3,0.3
	l-0.6,0.5l-1.2,1.1l-2.3,2.3l-4.6,4.5l-2.3,2.3l-0.6,0.6l-0.3,0.3l-0.1,0.1l0,0c0,0.4,0-0.5,0-0.4l0,0l0,0.1l0.9,1.4
	c1.2,1.8,2.2,3.7,3.1,5.6c1.9,3.9,3.3,8,4.2,12.2l0.3,1.6l0.1,0.4l0,0.1c-0.1-0.1,0.2,0.2-0.1-0.1h0h0.2h0.8l3.2,0l6.4,0.1l6.4,0
	C197.7,113.7,197.6,115.8,197.6,118z"/>
<linearGradient id="SVGID_6_" gradientUnits="userSpaceOnUse" x1="-232.1222" y1="3260.2666" x2="-188.0459" y2="3260.2666" gradientTransform="matrix(-1 0 0 -1 -86.0498 3369.3887)">
	<stop  offset="0" style="stop-color:#C4C4C4"/>
	<stop  offset="0.5" style="stop-color:#FFFFFF"/>
	<stop  offset="1" style="stop-color:#C4C4C4"/>
</linearGradient>
<path class="st6" d="M124,101.5c14,1,17.9,10,19.6,13.1c1.5,3.8,2.1,4.7,2.5,4.7c0-11.1-10.5-20.8-22.1-20.5
	c-11.6-0.3-22,9.5-22,20.5c0.4,0,1-0.8,2.5-4.6C106.1,111.7,109.9,102.6,124,101.5z"/>
<g>
	<defs>
		<circle id="SVGID_7_" cx="125" cy="125" r="103.1"/>
	</defs>
	<clipPath id="SVGID_8_">
		<use xlink:href="#SVGID_7_"  style="overflow:visible;"/>
	</clipPath>
	<linearGradient id="SVGID_9_" gradientUnits="userSpaceOnUse" x1="124.0376" y1="198.741" x2="124.0376" y2="46.2589">
		<stop  offset="0" style="stop-color:#777676"/>
		<stop  offset="1" style="stop-color:#F3F3F3"/>
	</linearGradient>
	<path class="st7" d="M110.4,198.7v-17.7c-6.5-1.5-12.6-4-18.2-7.5L79.8,186l-19.2-19.2L73,154.3c-3.5-5.6-6-11.7-7.6-18.2H47.8
		v-27.2h17.6c1.5-6.5,4-12.6,7.6-18.2L60.5,78.2L79.8,59l12.5,12.5c5.6-3.5,11.7-6.1,18.2-7.6V46.3h27.2v17.6
		c6.5,1.5,12.6,4,18.2,7.5L168.3,59l19.2,19.2l-12.4,12.5c3.5,5.6,6,11.7,7.5,18.2h17.6v27.2h-17.6c-1.5,6.5-4,12.6-7.5,18.2
		l12.4,12.5L168.3,186l-12.5-12.5c-5.6,3.5-11.7,6-18.2,7.5v17.7H110.4z M124,104.1c-10.2,0-18.4,8.2-18.4,18.4
		c0,10.1,8.2,18.3,18.4,18.3c10.1,0,18.3-8.2,18.3-18.3C142.4,112.3,134.2,104.1,124,104.1z"/>
	<linearGradient id="SVGID_10_" gradientUnits="userSpaceOnUse" x1="124.0375" y1="196.0388" x2="124.0375" y2="48.9417">
		<stop  offset="0" style="stop-color:#9C9C9D"/>
		<stop  offset="1" style="stop-color:#CDCCCC"/>
	</linearGradient>
	<path class="st8" d="M180.5,133.4c-1.5,7.8-4.5,14.9-8.8,21.3l12.1,12.1l-15.4,15.4l-12.1-12.1c-6.3,4.3-13.5,7.3-21.3,8.8V196
		h-21.8v-17.1c-7.7-1.5-15-4.5-21.3-8.8l-12.1,12.1l-15.5-15.4l12.1-12.1c-4.3-6.3-7.3-13.5-8.8-21.3H50.5v-21.8h17.2
		c1.5-7.8,4.5-15,8.8-21.3L64.3,78.2l15.4-15.4l12.1,12.1c6.3-4.3,13.5-7.3,21.3-8.8V48.9h21.8v17.1c7.7,1.5,15,4.5,21.3,8.8
		l12.1-12.1l15.4,15.4l-12.1,12.1c4.3,6.3,7.3,13.5,8.8,21.3h17.1v21.8H180.5z M124,104.1c-10.2,0-18.4,8.2-18.4,18.4
		c0,10.1,8.2,18.3,18.4,18.3c10.1,0,18.3-8.2,18.3-18.3C142.4,112.3,134.2,104.1,124,104.1z"/>
	<linearGradient id="SVGID_11_" gradientUnits="userSpaceOnUse" x1="124.0342" y1="167.6369" x2="124.0342" y2="77.3508">
		<stop  offset="0" style="stop-color:#D7D6D6"/>
		<stop  offset="1" style="stop-color:#777676"/>
	</linearGradient>
	<path class="st9" d="M169.2,122.5c0,24.9-20.2,45.1-45.1,45.1c-24.9,0-45.2-20.2-45.2-45.1c0-24.9,20.2-45.2,45.2-45.2
		C149,77.4,169.2,97.6,169.2,122.5z M124,104.1c-10.2,0-18.4,8.2-18.4,18.4c0,10.1,8.2,18.3,18.4,18.3c10.1,0,18.3-8.2,18.3-18.3
		C142.4,112.3,134.2,104.1,124,104.1z"/>
	
		<radialGradient id="SVGID_12_" cx="286.186" cy="3260.1633" r="55.5912" gradientTransform="matrix(1.7349 0 0 0.1882 -372.4665 -412.2137)" gradientUnits="userSpaceOnUse">
		<stop  offset="0" style="stop-color:#CDCCCC"/>
		<stop  offset="1" style="stop-color:#FFFFFF"/>
	</radialGradient>
	<path class="st10" d="M220.5,201.3c0,5.8-43.2,10.5-96.4,10.5c-53.3,0-96.4-4.7-96.4-10.5c0-5.8,43.2-10.5,96.4-10.5
		C177.3,190.9,220.5,195.6,220.5,201.3z"/>
	
		<linearGradient id="SVGID_13_" gradientUnits="userSpaceOnUse" x1="876.1633" y1="350.6386" x2="876.1633" y2="261.875" gradientTransform="matrix(0.9175 -0.3978 0.3978 0.9175 -700.79 146.6048)">
		<stop  offset="0" style="stop-color:#5E5F5F"/>
		<stop  offset="1" style="stop-color:#C2C2C2"/>
	</linearGradient>
	<path class="st11" d="M235.3,122.9l-4.1-9.4c-3.8,0.7-7.6,0.8-11.5,0.2l-3.8,9.6l-14.7-5.8l3.8-9.6c-3.2-2.2-5.9-4.9-8.2-8
		l-9.4,4.1l-6.3-14.5l9.4-4.1c-0.7-3.8-0.8-7.7-0.2-11.5l-9.6-3.8l5.8-14.7l9.6,3.8c2.2-3.2,4.9-5.9,8-8.2l-4.1-9.4l14.5-6.3
		l4.1,9.4c3.8-0.7,7.7-0.8,11.5-0.2l3.8-9.6l14.7,5.8l-3.8,9.6c3.2,2.2,5.9,4.9,8.2,8l9.4-4.1l6.3,14.5l-9.4,4.1
		c0.7,3.8,0.8,7.6,0.2,11.5l9.6,3.8l-5.8,14.7l-9.6-3.8c-2.2,3.2-4.9,6-8,8.3l4.1,9.4L235.3,122.9z"/>
	
		<linearGradient id="SVGID_14_" gradientUnits="userSpaceOnUse" x1="876.1721" y1="349.0767" x2="876.1721" y2="263.4324" gradientTransform="matrix(0.9175 -0.3978 0.3978 0.9175 -700.79 146.6048)">
		<stop  offset="0" style="stop-color:#7F7F7F"/>
		<stop  offset="1" style="stop-color:#A3A3A2"/>
	</linearGradient>
	<path class="st12" d="M266.7,67.9l-5-11.7l-9.2,4c-2.6-3.8-5.9-6.9-9.6-9.3l3.6-9.3l-11.8-4.7l-3.7,9.3c-4.3-0.8-8.9-0.8-13.4,0.2
		l-4-9.2l-11.7,5.1l4,9.1c-3.8,2.6-6.9,5.9-9.3,9.6l-9.3-3.7l-4.7,11.8l9.3,3.7c-0.8,4.3-0.8,8.9,0.2,13.4l-9.2,4l5.1,11.6l9.2-4
		c2.6,3.8,5.9,6.9,9.6,9.3l-3.7,9.3l11.8,4.7l3.7-9.3c4.3,0.8,8.9,0.8,13.4-0.2l4,9.2l11.7-5.1l-4-9.2c3.8-2.6,6.9-5.9,9.3-9.6
		l9.3,3.7l4.7-11.8l-9.3-3.7c0.8-4.4,0.8-8.9-0.2-13.4L266.7,67.9z"/>
	
		<linearGradient id="SVGID_15_" gradientUnits="userSpaceOnUse" x1="876.1561" y1="332.5562" x2="876.1561" y2="279.9648" gradientTransform="matrix(0.9175 -0.3978 0.3978 0.9175 -700.79 146.6048)">
		<stop  offset="0" style="stop-color:#ACACAC"/>
		<stop  offset="1" style="stop-color:#5E5F5F"/>
	</linearGradient>
	<path class="st13" d="M249,68.6c5.8,13.3-0.3,28.8-13.7,34.6c-13.3,5.8-28.8-0.4-34.6-13.7c-5.8-13.3,0.4-28.8,13.7-34.6
		C227.8,49.2,243.2,55.3,249,68.6z"/>
	
		<linearGradient id="SVGID_16_" gradientUnits="userSpaceOnUse" x1="876.1587" y1="330.5354" x2="876.1587" y2="281.9814" gradientTransform="matrix(0.9175 -0.3978 0.3978 0.9175 -700.79 146.6048)">
		<stop  offset="0" style="stop-color:#7F7F7F"/>
		<stop  offset="1" style="stop-color:#ACACAC"/>
	</linearGradient>
	<path class="st14" d="M247.2,69.4c5.3,12.3-0.3,26.6-12.6,31.9c-12.3,5.3-26.6-0.3-31.9-12.6c-5.3-12.3,0.3-26.6,12.6-31.9
		C227.6,51.5,241.9,57.1,247.2,69.4z"/>
	<linearGradient id="SVGID_17_" gradientUnits="userSpaceOnUse" x1="225.6888" y1="130.6322" x2="224.1888" y2="30.6322">
		<stop  offset="0" style="stop-color:#FFFFFF"/>
		<stop  offset="1" style="stop-color:#DC4744"/>
	</linearGradient>
	<path class="st15" d="M234.7,74.8c2.3,5.4-0.1,11.7-5.6,14c-5.4,2.4-11.7-0.1-14.1-5.6c-2.3-5.4,0.2-11.7,5.6-14.1
		C226.1,66.9,232.4,69.4,234.7,74.8z"/>
	
		<linearGradient id="SVGID_18_" gradientUnits="userSpaceOnUse" x1="863.9019" y1="313.6952" x2="888.4357" y2="313.6952" gradientTransform="matrix(0.9175 -0.3978 0.3978 0.9175 -700.79 146.6048)">
		<stop  offset="0" style="stop-color:#9C9C9D"/>
		<stop  offset="0.5" style="stop-color:#CDCCCC"/>
		<stop  offset="1" style="stop-color:#9C9C9D"/>
	</linearGradient>
	<path class="st16" d="M229.6,89.9c-7.3,2.6-11.5-1.4-13-2.7c-1.7-1.7-2.1-2.1-2.4-2c2.6,5.9,10.2,8.8,16,6.1c6-2.4,9-9.9,6.5-15.9
		c-0.2,0.1-0.3,0.6-0.2,3C236.5,80.5,236.6,86.2,229.6,89.9z"/>
	
		<linearGradient id="SVGID_19_" gradientUnits="userSpaceOnUse" x1="-852.5876" y1="3239.7354" x2="-828.0464" y2="3239.7354" gradientTransform="matrix(-0.9175 0.3978 -0.3978 -0.9175 739.7472 3378.9963)">
		<stop  offset="0" style="stop-color:#848484"/>
		<stop  offset="0.5" style="stop-color:#6F6F6F"/>
		<stop  offset="1" style="stop-color:#848484"/>
	</linearGradient>
	<path class="st17" d="M220.2,68.2c7.3-2.6,11.5,1.4,13,2.7c1.7,1.7,2.1,2.1,2.3,1.9c-2.6-5.9-10.2-8.8-16-6.1
		c-6,2.4-9,9.9-6.5,15.9c0.2-0.1,0.3-0.6,0.2-3C213.4,77.6,213.2,71.9,220.2,68.2z"/>
	
		<linearGradient id="SVGID_20_" gradientUnits="userSpaceOnUse" x1="-109.0463" y1="3427.0674" x2="-66.9086" y2="3427.0674" gradientTransform="matrix(-1 0 0 -1 36.0693 3539.2422)">
		<stop  offset="0" style="stop-color:#A5A5A5"/>
		<stop  offset="0.5" style="stop-color:#898989"/>
		<stop  offset="1" style="stop-color:#A5A5A5"/>
	</linearGradient>
	<path class="st18" d="M124,104.6c13.3,1,17.1,10,18.7,13.1c1.4,3.9,2,4.7,2.4,4.7c0-11.1-10-20.8-21.1-20.5
		c-11.1-0.3-21,9.5-21,20.6c0.4,0.1,0.9-0.8,2.3-4.6C106.8,114.7,110.6,105.6,124,104.6z"/>
</g>
</svg>
